<?xml version="1.0" standalone="no"?>
<!DOCTYPE svg PUBLIC "-//W3C//DTD SVG 20010904//EN"
 "http://www.w3.org/TR/2001/REC-SVG-20010904/DTD/svg10.dtd">
<svg version="1.0" xmlns="http://www.w3.org/2000/svg"
 width="512.000000pt" height="512.000000pt" viewBox="0 0 512.000000 512.000000"
 preserveAspectRatio="xMidYMid meet">
<metadata>
Created by potrace 1.16, written by Peter Selinger 2001-2019
</metadata>
<g transform="translate(0.000000,512.000000) scale(0.100000,-0.100000)"
fill="#000000" stroke="none">
<path d="M2570 4403 c-74 -9 -162 -34 -222 -61 -73 -33 -218 -150 -267 -216
-30 -40 -39 -46 -72 -46 -34 0 -40 -4 -78 -63 -36 -56 -98 -187 -115 -242 -5
-18 -2 -20 38 -17 l44 4 -8 -44 c-12 -63 -14 -129 -12 -370 l2 -218 25 0 25 0
0 188 c0 294 16 380 105 569 53 113 91 169 169 252 215 226 535 282 823 146
200 -94 333 -229 434 -440 79 -165 90 -223 96 -487 4 -186 8 -228 19 -228 20
0 20 326 -1 441 -34 198 -127 389 -260 537 -103 115 -290 229 -445 272 -74 20
-232 33 -300 23z"/>
<path d="M3030 4146 c42 -24 99 -65 128 -91 122 -110 217 -305 238 -486 4 -32
10 -59 13 -59 4 0 4 31 0 70 -28 264 -165 472 -381 581 -85 43 -83 35 2 -15z"/>
<path d="M2560 4170 c-180 -26 -341 -147 -433 -327 -23 -45 -45 -79 -48 -77
-4 2 -15 27 -24 55 -9 28 -19 48 -22 46 -2 -3 -13 -38 -24 -79 -36 -137 -49
-256 -49 -460 l0 -198 54 0 54 0 4 268 c4 239 7 274 26 332 52 156 179 309
312 373 41 20 89 39 105 43 l30 7 -25 -20 c-14 -11 -45 -29 -70 -40 -120 -53
-253 -194 -299 -319 -33 -87 -24 -94 16 -13 99 199 333 334 520 299 139 -25
329 -171 401 -307 57 -109 73 -193 79 -420 l6 -203 54 0 55 0 -4 190 c-1 104
0 182 4 172 16 -41 6 112 -12 184 -50 196 -174 348 -355 433 -121 58 -239 78
-355 61z m637 -732 c-3 -8 -6 -5 -6 6 -1 11 2 17 5 13 3 -3 4 -12 1 -19z"/>
<path d="M1757 3496 c-4 -27 -7 -120 -7 -207 l0 -159 38 0 38 0 -12 129 c-7
71 -20 153 -28 183 -8 29 -16 64 -18 78 -2 17 -6 9 -11 -24z"/>
<path d="M3440 3290 l0 -160 45 0 45 0 0 150 0 150 -26 0 c-14 0 -34 5 -45 10
-18 10 -19 6 -19 -150z"/>
<path d="M3294 3260 c0 -74 1 -105 3 -67 2 37 2 97 0 135 -2 37 -3 6 -3 -68z"/>
<path d="M1601 3102 c-22 -4 -125 -95 -132 -119 -3 -8 -42 -13 -114 -16 l-110
-5 35 30 c51 44 129 78 217 93 l78 14 -100 -4 c-58 -2 -119 -10 -145 -19 -102
-37 -199 -140 -218 -233 -14 -65 -15 -1580 -2 -1640 13 -58 61 -127 110 -159
22 -15 79 -39 127 -54 88 -28 88 -29 43 -30 -25 -2 -58 -6 -75 -9 -54 -13 217
-26 510 -24 581 3 1839 48 1895 67 102 35 192 116 238 214 l27 57 3 825 c2
454 0 839 -3 856 -7 40 -67 109 -115 134 -37 19 -73 19 -1142 22 -606 2 -1114
1 -1127 0z m2266 -68 c21 -17 48 -48 60 -70 l23 -39 -3 -830 c-2 -827 -2 -830
-24 -877 -29 -62 -94 -132 -150 -159 -41 -20 -73 -23 -327 -35 -481 -23 -1688
-54 -1728 -45 -70 16 -143 87 -187 181 l-26 55 -3 808 c-4 911 -6 879 69 957
22 23 64 53 92 66 l52 24 1057 -3 1056 -2 39 -31z m-2287 -7 c0 -2 -12 -14
-27 -28 l-28 -24 24 28 c23 25 31 32 31 24z m-129 -134 c-4 -21 -4 -180 0
-353 11 -442 10 -1215 -1 -1204 -5 5 -11 25 -13 44 -3 19 -4 -21 -3 -90 1
-113 4 -131 29 -185 l27 -60 -30 34 c-39 45 -50 103 -52 274 -1 98 -3 123 -7
82 -4 -38 -9 -54 -13 -42 -4 9 -16 17 -26 17 -21 0 -127 103 -170 166 l-27 39
-6 -70 c-3 -38 -6 226 -7 587 -2 516 1 658 10 665 7 4 68 9 135 11 68 3 123 7
123 11 0 3 4 22 9 41 l8 35 -131 -2 c-83 -1 -122 1 -106 6 14 5 68 10 120 10
52 1 102 6 110 11 25 16 28 12 21 -27z"/>
<path d="M3589 2839 c-38 -41 -40 -95 -3 -138 44 -52 132 -33 160 35 12 29 12
39 0 68 -30 72 -107 89 -157 35z m127 -34 c8 -20 10 -43 5 -60 -9 -35 -30 -46
-24 -12 4 19 -10 64 -35 109 -2 3 7 4 19 1 11 -3 27 -20 35 -38z"/>
<path d="M1736 2824 c-33 -34 -36 -98 -5 -138 28 -36 85 -36 128 0 66 55 26
164 -59 164 -27 0 -45 -7 -64 -26z m106 -11 c18 -16 24 -66 12 -97 -10 -26
-24 -18 -24 14 0 40 -18 76 -44 88 -20 10 -19 11 8 11 16 1 38 -6 48 -16z"/>
<path d="M2610 2804 c-30 -8 -79 -26 -109 -39 -65 -30 -74 -31 -41 -4 l25 20
-25 -12 c-50 -25 -166 -152 -198 -219 -95 -195 -83 -360 41 -564 l41 -70 -2
-246 c-4 -318 -19 -294 185 -298 81 -2 212 1 290 6 132 9 145 11 177 36 24 18
37 38 42 62 4 20 2 142 -3 272 -8 227 -8 238 11 259 10 12 22 20 27 18 4 -3
11 0 15 6 4 8 3 9 -4 5 -17 -10 -15 9 1 23 8 6 18 7 22 3 5 -4 5 -1 1 5 -4 7
4 32 18 55 76 132 75 330 -2 471 -45 84 -106 143 -189 184 -69 34 -84 38 -172
40 -63 2 -115 -2 -151 -13z m280 -33 c111 -42 214 -148 245 -255 20 -67 20
-227 -1 -297 -19 -64 -43 -107 -97 -173 l-40 -48 7 -230 c5 -199 4 -234 -10
-263 -29 -61 -39 -63 -278 -67 l-218 -3 -20 25 c-19 23 -20 36 -16 290 l3 265
-37 77 c-51 107 -64 179 -49 270 14 87 33 132 95 226 43 64 65 84 152 139 19
11 19 11 0 19 -23 9 -126 -40 -126 -61 0 -8 -21 -38 -46 -67 -26 -28 -57 -75
-70 -102 -49 -108 -55 -257 -16 -367 10 -30 22 -63 26 -74 4 -11 -2 -3 -14 17
-71 129 -63 342 20 481 l22 37 -21 0 c-19 0 -20 3 -11 20 13 23 140 111 196
135 93 40 209 42 304 6z m-623 -483 c-2 -18 -4 -6 -4 27 0 33 2 48 4 33 2 -15
2 -42 0 -60z m10 -80 c-3 -7 -5 -2 -5 12 0 14 2 19 5 13 2 -7 2 -19 0 -25z
m47 -116 c9 -18 14 -32 11 -32 -9 0 -55 103 -54 120 0 8 6 -1 14 -21 7 -20 20
-50 29 -67z m70 -105 l37 -54 -9 -234 -10 -234 0 220 c0 121 0 230 -1 241 0
12 -17 45 -37 74 -20 29 -32 50 -26 46 5 -3 26 -30 46 -59z m284 -574 c-15 -2
-42 -2 -60 0 -18 2 -6 4 27 4 33 0 48 -2 33 -4z"/>
<path d="M2693 2720 c-53 -11 -113 -42 -158 -81 -50 -44 -38 -46 25 -4 72 49
146 69 234 63 81 -5 135 -29 198 -86 24 -22 37 -29 30 -17 -46 87 -211 150
-329 125z"/>
<path d="M2820 2633 c0 -4 -18 -9 -41 -10 -22 -2 -61 -12 -87 -23 l-47 -21 30
25 c34 28 19 34 -26 10 -96 -49 -159 -148 -167 -259 -5 -86 9 -141 51 -197 34
-45 123 -112 137 -103 5 3 8 -39 8 -94 0 -54 3 -104 6 -110 10 -16 100 -14
141 3 44 19 55 42 55 120 0 65 0 66 38 90 110 69 165 198 141 330 -6 33 -19
76 -29 96 -18 36 -90 109 -126 128 -28 14 -84 25 -84 15z m102 -71 c67 -46
103 -123 102 -217 0 -46 -6 -81 -18 -103 -9 -18 -14 -38 -10 -44 4 -6 3 -8 -3
-5 -6 4 -30 -15 -54 -41 -24 -26 -56 -57 -71 -68 -25 -20 -27 -28 -31 -105 -3
-70 -4 -64 -4 31 0 98 2 119 18 139 13 16 19 40 19 73 0 41 -5 54 -29 79 -17
16 -40 29 -54 29 -79 0 -126 -132 -66 -186 17 -15 19 -31 19 -126 0 -59 -4
-108 -9 -108 -14 0 -21 39 -21 120 l0 75 -37 20 c-81 44 -127 157 -104 259 7
30 25 74 42 99 76 114 210 149 311 79z m-385 -184 c-3 -7 -5 -2 -5 12 0 14 2
19 5 13 2 -7 2 -19 0 -25z m0 -120 c-3 -7 -5 -2 -5 12 0 14 2 19 5 13 2 -7 2
-19 0 -25z m91 -131 c56 -52 56 -73 -1 -26 -38 32 -71 79 -81 119 -5 18 -1 16
13 -10 10 -20 42 -57 69 -83z m362 49 c0 -2 -8 -10 -17 -17 -16 -13 -17 -12
-4 4 13 16 21 21 21 13z m-229 -304 c-30 -2 -58 0 -62 5 -4 4 20 6 54 3 l62
-5 -54 -3z"/>
<path d="M3596 1429 c-57 -67 -26 -159 53 -159 90 1 133 115 64 170 -39 31
-86 26 -117 -11z m101 -11 c26 -25 30 -65 8 -94 -13 -18 -14 -17 -15 19 0 39
-14 76 -34 89 -7 5 -6 8 3 8 8 0 25 -10 38 -22z"/>
<path d="M1763 1410 c-28 -11 -52 -49 -59 -92 -5 -27 -1 -40 21 -66 22 -27 34
-32 69 -32 97 0 139 112 64 175 -31 26 -57 30 -95 15z m82 -35 c30 -29 33 -73
7 -105 l-19 -23 0 47 c0 32 -6 56 -22 76 -18 25 -19 30 -6 30 9 0 27 -11 40
-25z"/>
</g>
</svg>